<svg id="flag-icon-css-us" xmlns="http://www.w3.org/2000/svg" xmlns:xlink="http://www.w3.org/1999/xlink" viewBox="0 0 512 512"><defs><style>.cls-1{fill:none;}.cls-2{fill:#bd3d44;}.cls-3{fill:#fff;}.cls-4{fill:#192f5d;}.cls-5{clip-path:url(#clip-path);}.cls-6{clip-path:url(#clip-path-2);}.cls-7{fill:#006;}.cls-8{fill:#c00;}</style><clipPath id="clip-path"><rect class="cls-1" x="174.74" y="72.38" width="512" height="741.83" transform="translate(439.62 -174.74) rotate(45)"/></clipPath><clipPath id="clip-path-2"><rect class="cls-1" width="512" height="512"/></clipPath></defs><title>en</title><path class="cls-2" d="M0,0H972.81V39.38H0ZM0,78.77H972.81v39.38H0Zm0,78.77H972.81v39.38H0Zm0,78.77H972.81v39.38H0Zm0,78.77H972.81v39.38H0Zm0,78.77H972.81v39.38H0Zm0,78.77H972.81V512H0Z"/><path class="cls-3" d="M0,39.38H972.81V78.77H0Zm0,78.77H972.81v39.39H0Zm0,78.77H972.81v39.39H0Zm0,78.77H972.81v39.39H0Zm0,78.77H972.81v39.39H0Zm0,78.77H972.81v39.39H0Z"/><path class="cls-4" d="M0,0H389.12V275.69H0Z"/><path class="cls-3" d="M32.3,11.82l3.93,11h11l-9.06,6.7,3.55,10.63L32.3,33.48l-8.67,6.69,3.55-10.63-9.46-6.7H29.54Zm65,0,3.55,11h11.42l-9.46,6.7,3.94,10.63-9.45-6.69-9.45,6.69,3.94-10.63-9.46-6.7H93.74Zm65,0,3.54,11h11.42l-9.45,6.7,3.94,10.63-9.45-6.69-9.46,6.69,3.94-10.63-9.45-6.7h11.42Zm64.59,0,3.94,11h11l-9,6.7,3.54,10.63-9.45-6.69-9.06,6.69,3.54-10.63-9.45-6.7h11.82Zm65,0,3.55,11h11.42l-9.45,6.7,3.94,10.63-9.85-6.69-9.06,6.69,3.55-10.63-9.46-6.7H287.9Zm65,0,3.54,11h11.42l-9.45,6.7,3.94,10.63-9.45-6.69-9.45,6.69,3.93-10.63-9.45-6.7h11.42ZM65,39.38l3.54,11H80l-9.45,6.7,3.94,10.63L65,61.05l-9.46,6.69,3.94-10.63L50,50.41H61.44Zm64.59,0,3.94,11h11l-9.06,6.7L139,67.74l-9.45-6.69-9.06,6.69,3.54-10.63-9.45-6.7h11.82Zm65,0,3.55,11h11.42l-9.45,6.7L204,67.74l-9.45-6.69-9.45,6.69,3.94-10.63-9.45-6.7H191Zm65,0,3.54,11h11.42l-9.45,6.7L269,67.74l-9.45-6.69-9.46,6.69L254,57.11l-9.45-6.7H256Zm64.59,0,3.94,11h10.63l-9.06,6.7,3.55,10.63-9.46-6.69-9.05,6.69,3.54-10.63-9.45-6.7h11.81ZM32.69,67l3.15,11H47.66l-9.46,6.7,3.55,10.63L32.3,88.62l-8.67,6.69,3.55-10.63L17.72,78H29.54Zm64.59,0,3.55,11h11.42l-9.06,6.7,3.54,10.63-9.45-6.69-9.06,6.69,3.55-10.63L82.31,78H93.74Zm65,0,3.54,11h11.42l-9.45,6.7,3.94,10.63-9.45-6.69-9.46,6.69,3.94-10.63L147.3,78h11.42Zm64.59,0,3.94,11h11l-9,6.7,3.54,10.63-9.45-6.69-9.06,6.69,3.54-10.63L211.89,78h11.82Zm65,0,3.55,11h11.42l-9.06,6.7,3.55,10.63-9.46-6.69-9.06,6.69,3.55-10.63L276.88,78H288.3Zm65,0,3.54,11h11.42l-9.45,6.7,3.94,10.63-9.45-6.69-9.45,6.69,3.93-10.63L341.86,78h11.42ZM65,94.52l3.54,11H80l-9.45,6.7,3.94,10.63L65,116.19l-9.46,6.69,3.94-10.63L50,105.55H61.44Zm64.59,0,3.94,11h11l-9.06,6.7L139,122.88l-9.45-6.69-9.06,6.69,3.54-10.63-9.45-6.7h11.82Zm65,0,3.55,11h11.42l-9.06,6.7L204,122.88l-9.45-6.69-9.06,6.69,3.55-10.63-9.45-6.7H191Zm65,0,3.54,11h11.42l-9.45,6.7L269,122.88l-9.45-6.69-9.46,6.69L254,112.25l-9.45-6.7H256Zm64.59,0,3.94,11h10.63l-9.06,6.7,3.55,10.63-9.46-6.69-9.05,6.69,3.54-10.63-9.45-6.7h11.81ZM32.69,122.09l3.15,11H47.66l-9.46,6.7,3.55,10.63-9.45-6.69-8.67,6.69,3.55-10.63-9.46-6.7H29.54Zm64.59,0,3.55,11h11.42l-9.06,6.7,3.54,10.63-9.45-6.69-9.06,6.69,3.55-10.63-9.46-6.7H93.74Zm65,0,3.54,11h11.42l-9.45,6.7,3.94,10.63-9.45-6.69-9.46,6.69,3.94-10.63-9.45-6.7h11.42Zm64.59,0,3.94,11h11l-9,6.7,3.54,10.63-9.45-6.69-9.06,6.69,3.54-10.63-9.45-6.7h11.82Zm65,0,3.55,11h11.42l-9.06,6.7,3.55,10.63-9.46-6.69-9.06,6.69,3.55-10.63-9.45-6.7H288.3Zm65,0,3.54,11h11.42l-9.45,6.7,3.94,10.63-9.45-6.69-9.45,6.69,3.93-10.63-9.45-6.7h11.42ZM65,149.66l3.54,11H80l-9.45,6.7L74.44,178,65,171.32,55.53,178l3.94-10.63L50,160.69H61.44Zm64.59,0,3.94,11h11l-9.06,6.7L139,178l-9.45-6.7-9.06,6.7,3.54-10.63-9.45-6.7h11.82Zm65,0,3.55,11h11.42l-9.06,6.7L204,178l-9.45-6.7L185.5,178l3.55-10.63-9.45-6.7H191Zm65,0,3.54,11h11.42l-9.45,6.7L269,178l-9.45-6.7-9.46,6.7L254,167.39l-9.45-6.7H256Zm64.59,0,3.94,11h10.63l-9.06,6.7L333.2,178l-9.46-6.7-9.05,6.7,3.54-10.63-9.45-6.7h11.81ZM32.69,177.23l3.15,11H47.66L38.2,195l3.55,10.63-9.45-6.7-8.67,6.7L27.18,195l-9.46-6.7H29.54Zm64.59,0,3.55,11h11.42l-9.06,6.7,3.54,10.63-9.45-6.7-9.06,6.7L91.77,195l-9.46-6.7H93.74Zm65,0,3.54,11h11.42l-9.45,6.7,3.94,10.63-9.45-6.7-9.46,6.7L156.75,195l-9.45-6.7h11.42Zm64.59,0,3.94,11h11l-9,6.7,3.54,10.63-9.45-6.7-9.06,6.7L221.34,195l-9.45-6.7h11.82Zm65,0,3.55,11h11.42l-9.06,6.7,3.55,10.63-9.46-6.7-9.06,6.7L286.33,195l-9.45-6.7H288.3Zm65,0,3.54,11h11.42l-9.45,6.7,3.94,10.63-9.45-6.7-9.45,6.7L351.31,195l-9.45-6.7h11.42ZM65,204.8l3.54,11H80l-9.45,6.7,3.94,10.63L65,226.46l-9.46,6.7,3.94-10.63L50,215.83H61.44Zm64.59,0,3.94,11h11l-9.06,6.7L139,233.16l-9.45-6.7-9.06,6.7,3.54-10.63-9.45-6.7h11.82Zm65,0,3.55,11h11.42l-9.06,6.7L204,233.16l-9.45-6.7-9.06,6.7,3.55-10.63-9.45-6.7H191Zm65,0,3.54,11h11.42l-9.45,6.7L269,233.16l-9.45-6.7-9.46,6.7L254,222.53l-9.45-6.7H256Zm64.59,0,3.94,11h10.63l-9.06,6.7,3.55,10.63-9.46-6.7-9.05,6.7,3.54-10.63-9.45-6.7h11.81ZM32.69,232.37l3.15,11H47.66l-9.46,6.69,3.55,10.64L32.3,254l-8.67,6.7,3.55-10.64-9.46-6.69H29.54Zm64.59,0,3.55,11h11.42l-9.06,6.69,3.54,10.64L97.28,254l-9.06,6.7,3.55-10.64-9.46-6.69H93.74Zm65,0,3.54,11h11.42l-9.45,6.69,3.94,10.64-9.45-6.7-9.46,6.7,3.94-10.64-9.45-6.69h11.42Zm64.59,0,3.94,11h11l-9,6.69,3.54,10.64-9.45-6.7-9.06,6.7,3.54-10.64-9.45-6.69h11.82Zm65,0,3.55,11h11.42l-9.06,6.69,3.55,10.64-9.46-6.7-9.06,6.7,3.55-10.64-9.45-6.69H288.3Zm65,0,3.54,11h11.42l-9.45,6.69,3.94,10.64-9.45-6.7-9.45,6.7,3.93-10.64-9.45-6.69h11.42Z"/><g class="cls-5"><g class="cls-6"><path class="cls-7" d="M-256,0H768V512H-256Z"/><path class="cls-3" d="M-256,0V57.24L653.52,512H768V454.76L-141.52.1H-256ZM768,0V57.24L-141.52,512H-256V454.76L653.52,0Z"/><path class="cls-3" d="M170.7,0V512H341.3V0ZM-256,170.7V341.3H768V170.7Z"/><path class="cls-8" d="M-256,204.8V307.2H768V204.8ZM204.8,0V512H307.2V0ZM-256,512,85.3,341.3h76.49L-179.71,512Zm0-512L85.3,170.7H9L-256,38.2ZM350.31,170.7,691.71,0H768L426.7,170.7H350.31ZM768.1,512,426.6,341.3h76.29L768,473.8V512Z"/></g></g></svg>