<svg id="flag-icon-css-us" xmlns="http://www.w3.org/2000/svg" xmlns:xlink="http://www.w3.org/1999/xlink" viewBox="0 0 640 480"><defs><style>.cls-1{fill:none;}.cls-2{fill:#bd3d44;}.cls-3{fill:#fff;}.cls-4{fill:#192f5d;}.cls-5{clip-path:url(#clip-path);}.cls-6{clip-path:url(#clip-path-2);}.cls-7{fill:#006;}.cls-8{fill:#c00;}</style><clipPath id="clip-path"><rect class="cls-1" x="40.21" y="200.44" width="800" height="400.41" transform="translate(-152.28 343.61) rotate(-36.81)"/></clipPath><clipPath id="clip-path-2"><rect class="cls-1" x="-1.64" y="-1.28" width="641.64" height="481.28"/></clipPath></defs><title>Artboard 1en</title><path class="cls-2" d="M0,0H912V36.94H0ZM0,73.88H912v36.93H0Zm0,73.78H912v37H0Zm0,73.87H912v36.94H0Zm0,73.88H912v36.93H0Zm0,73.78H912v36.93H0Zm0,73.87H912V480H0Z"/><path class="cls-3" d="M0,36.94H912V73.88H0Zm0,73.87H912v36.85H0Zm0,73.78H912v36.94H0Zm0,73.88H912v36.94H0Zm0,73.87H912v36.94H0Zm0,73.79H912v36.93H0Z"/><path class="cls-4" d="M0,0H364.78V258.47H0Z"/><path class="cls-3" d="M30.38,11.06l3.37,10.22H44.44l-8.63,6.28,3.28,10.32L30.38,31.5l-8.63,6.28L25,27.56l-8.72-6.28H27.19Zm60.84,0L94.5,21.28h10.78l-8.72,6.28,3.28,10.32L91.22,31.5,82.5,37.78l3.28-10.22-8.62-6.28H87.84Zm60.75,0,3.37,10.22h10.6l-8.63,6.28,3.28,10.32-8.71-6.38-8.63,6.28,3.28-10.22-8.72-6.28h10.78Zm60.84,0,3.28,10.22h10.79l-8.72,6.28,3.37,10.32-8.72-6.38-8.72,6.28,3.38-10.22-8.72-6.28h10.69Zm60.75,0,3.38,10.22h10.68L279,27.56l3.28,10.32-8.72-6.38-8.62,6.28,3.28-10.22-8.63-6.28h10.69Zm60.85,0,3.28,10.22h10.78l-8.72,6.28,3.38,10.32-8.72-6.38-8.72,6.28,3.37-10.22-8.72-6.28h10.79ZM60.84,36.94l3.29,10.22H74.91l-8.72,6.28,3.19,10.22-8.44-6.28-8.72,6.28,3.09-10.22-8.43-6.28H57.56Zm60.75,0L125,47.16h10.69l-8.72,6.28,3.37,10.22-8.72-6.28-8.71,6.28,3.37-10.22-8.72-6.28h10.78Zm60.85,0,3.28,10.22H196.5l-8.72,6.28,3.28,10.22-8.62-6.28-8.72,6.28L177,53.44l-8.62-6.28h10.68Zm60.75,0,3.37,10.22h10.69l-8.72,6.28,3.38,10.22-8.72-6.28-8.63,6.28,3.28-10.22-8.71-6.28H240Zm60.84,0,3.28,10.22h10.78l-8.71,6.28,3.28,10.22L304,57.38l-8.72,6.28,3.28-10.22L290,47.16h10.69ZM30.38,62.72l3.37,10.41H44.44l-8.63,6.28,3.28,10.21-8.71-6.37-8.63,6.37L25,79.31,16.31,73H27.19Zm60.84,0L94.5,73h10.78l-8.72,6.28,3.28,10.22-8.62-6.37L82.5,89.53l3.28-10.31-8.62-6.28H87.84Zm60.75,0L155.34,73h10.6l-8.63,6.28,3.28,10.22-8.71-6.37-8.63,6.37,3.28-10.31-8.72-6.28h10.78Zm60.84,0L216.09,73h10.79l-8.72,6.28,3.37,10.22-8.72-6.37-8.72,6.37,3.38-10.31-8.72-6.28h10.69Zm60.75,0L276.94,73h10.68L279,79.31l3.28,10.22-8.72-6.37-8.62,6.37,3.28-10.31-8.63-6.28h10.69Zm60.85,0L337.69,73h10.78l-8.72,6.28,3.38,10.22-8.72-6.37-8.72,6.37,3.37-10.31-8.72-6.28h10.79ZM60.84,88.59l3.29,10.22H74.91l-8.72,6.28,3.28,10.32L60.84,109l-8.71,6.28,3.28-10.22-8.63-6.28H57.47Zm60.75,0L125,98.81h10.69l-8.72,6.28,3.37,10.32L121.59,109l-8.71,6.28,3.37-10.22-8.72-6.28h10.78Zm60.85,0,3.28,10.22H196.5l-8.72,6.28,3.28,10.32L182.44,109l-8.72,6.28L177,105.09l-8.62-6.28h10.68Zm60.75,0,3.37,10.22h10.69l-8.62,6.28,3.28,10.32L243.19,109l-8.63,6.28,3.28-10.22-8.71-6.28H240Zm60.84,0,3.28,10.22h10.78l-8.71,6.28,3.28,10.32L304,109l-8.72,6.28,3.28-10.22L290,98.81h10.69ZM30.38,114.47l3.37,10.22H44.44L35.81,131l3.28,10.31-8.71-6.37-8.63,6.28L25,131l-8.72-6.28H27.19Zm60.84,0,3.28,10.22h10.78L96.56,131l3.28,10.22-8.62-6.28-8.72,6.28L85.78,131l-8.62-6.28H87.84Zm60.75,0,3.37,10.22h10.6L157.31,131l3.28,10.31-8.71-6.37-8.63,6.28L146.53,131l-8.72-6.28h10.78Zm60.84,0,3.28,10.22h10.79L218.16,131l3.37,10.31-8.72-6.37-8.72,6.28L207.47,131l-8.72-6.28h10.69Zm60.75,0,3.38,10.22h10.68L279,131l3.28,10.31-8.72-6.37-8.62,6.28L268.22,131l-8.63-6.28h10.69Zm60.85,0,3.28,10.22h10.78L339.75,131l3.38,10.31-8.72-6.37-8.72,6.28L329.06,131l-8.72-6.28h10.79ZM60.84,140.34l3.29,10.22H74.91l-8.72,6.28,3.28,10.22-8.63-6.37-8.71,6.37,3.28-10.31-8.63-6.28H57.47Zm60.75,0L125,150.56h10.69l-8.72,6.28,3.37,10.22-8.72-6.37-8.71,6.37,3.37-10.31-8.72-6.28h10.78Zm60.85,0,3.28,10.22H196.5l-8.72,6.28,3.28,10.22-8.62-6.37-8.72,6.37L177,156.75l-8.62-6.28h10.68Zm60.75,0,3.37,10.22h10.69l-8.62,6.28,3.28,10.22-8.72-6.37-8.63,6.37,3.28-10.31-8.71-6.28H240Zm60.84,0,3.28,10.22h10.78l-8.71,6.28,3.28,10.22L304,160.69l-8.72,6.37,3.28-10.31L290,150.47h10.69ZM30.38,166.12l3.37,10.32H44.44l-8.63,6.28,3.28,10.12-8.71-6.28-8.63,6.28L25,182.63l-8.72-6.29H27.19Zm60.84,0,3.28,10.32h10.78l-8.72,6.28,3.38,10.12-8.72-6.28-8.72,6.28,3.37-10.21-8.71-6.29H87.84Zm60.75,0,3.37,10.32h10.6l-8.63,6.28,3.28,10.12-8.71-6.28-8.63,6.28,3.28-10.21-8.72-6.29h10.78Zm60.84,0,3.28,10.32h10.79l-8.72,6.28,3.37,10.12-8.72-6.28-8.72,6.28,3.38-10.21-8.72-6.29h10.69Zm60.75,0,3.38,10.32h10.68L279,182.72l3.28,10.12-8.72-6.28-8.62,6.28,3.28-10.21-8.63-6.29h10.69Zm60.85,0,3.28,10.32h10.78l-8.72,6.28,3.38,10.12-8.72-6.28-8.72,6.28,3.37-10.21-8.72-6.29h10.79ZM60.84,192l3.29,10.22H74.91l-8.72,6.28,3.28,10.31-8.63-6.37-8.71,6.28,3.28-10.22-8.63-6.28H57.47Zm60.75,0L125,202.22h10.69l-8.72,6.28,3.37,10.31-8.72-6.37-8.71,6.28,3.37-10.22-8.72-6.28h10.78Zm60.85,0,3.28,10.22H196.5l-8.72,6.28,3.28,10.31-8.62-6.37-8.72,6.28L177,208.5l-8.62-6.28h10.68Zm60.75,0,3.37,10.22h10.69l-8.62,6.28,3.28,10.31-8.72-6.37-8.63,6.28,3.28-10.22-8.71-6.28H240ZM304,192l3.28,10.22h10.78l-8.71,6.28,3.28,10.31L304,212.44l-8.72,6.28,3.28-10.22L290,202.22h10.69ZM30.38,217.87l3.37,10.22H44.44l-8.63,6.28,3.28,10.22-8.71-6.28-8.63,6.28L25,234.28,16.31,228H27.19Zm60.84,0,3.28,10.22h10.78l-8.72,6.29,3.38,10.21-8.72-6.28-8.72,6.28,3.37-10.31L77.16,228H87.84Zm60.75,0,3.37,10.22h10.6l-8.44,6.29,3.28,10.21-8.72-6.28-8.62,6.28,3.28-10.31L138,228h10.78Zm60.84,0,3.28,10.22h10.79l-8.72,6.28,3.37,10.22-8.72-6.28-8.72,6.28,3.38-10.31L198.75,228h10.69Zm60.75,0,3.38,10.22h10.68L279,234.37l3.28,10.22-8.72-6.28-8.62,6.28,3.28-10.31L259.59,228h10.69Zm60.85,0,3.28,10.22h10.78l-8.72,6.28,3.38,10.22-8.72-6.28-8.72,6.28,3.37-10.31L320.34,228h10.79Z"/><g class="cls-5"><g class="cls-6"><path class="cls-7" d="M-162.1-1.28H800.46V480H-162.1Z"/><path class="cls-3" d="M-162.1-1.28V52.49L692.83,480H800.46V426.23L-54.47-1.28Zm962.56,0V52.49L-54.47,480H-162.1V426.23L692.83-1.28Z"/><path class="cls-3" d="M239-1.28V480H399.36V-1.28ZM-162.1,159.18V319.54H800.46V159.18Z"/><path class="cls-8" d="M-162.1,191.23v96.26H800.46V191.23ZM271.05-1.28V480h96.26V-1.28ZM-162.1,480,158.72,319.54h71.82L-90.38,480Zm0-481.28L158.72,159.18H87L-162.1,34.63Zm570,160.46L728.74-1.28h71.72L479.64,159.18ZM800.46,480,479.64,319.54h71.72l249.1,124.55Z"/></g></g></svg>